<svg xmlns="http://www.w3.org/2000/svg" version="1.1" xmlns:xlink="http://www.w3.org/1999/xlink" xmlns:svgjs="http://svgjs.com/svgjs" width="261.16010498687666" height="242.39107611548556"><svg version="1.1" viewBox="0.0 0.0 261.16010498687666 242.39107611548556" fill="none" stroke="none" stroke-linecap="square" stroke-miterlimit="10" xmlns:xlink="http://www.w3.org/1999/xlink" xmlns="http://www.w3.org/2000/svg"><clipPath id="SvgjsClipPath1000"><path d="m0 0l261.1601 0l0 242.39108l-261.1601 0l0 -242.39108z" clip-rule="nonzero"></path></clipPath><g clip-path="url(#p.0)"><path fill="#000000" fill-opacity="0.0" d="m0 0l261.1601 0l0 242.39108l-261.1601 0z" fill-rule="evenodd"></path><path fill="#f4ddef" d="m60.72921 21.55805l5.5039444 48.72168l56.732697 33.35956l-16.088692 -61.012238z" fill-rule="evenodd"></path><path stroke="#cd90be" stroke-width="24.0" stroke-linejoin="round" stroke-linecap="butt" d="m60.72921 21.55805l5.5039444 48.72168l56.732697 33.35956l-16.088692 -61.012238z" fill-rule="evenodd"></path><path fill="#f4ddef" d="m65.48986 75.058784l-10.707119 52.562996l-31.724998 -34.72863l2.775591 -44.584934l33.311523 -27.22029z" fill-rule="evenodd"></path><path stroke="#cd90be" stroke-width="24.0" stroke-linejoin="round" stroke-linecap="butt" d="m65.48986 75.058784l-10.707119 52.562996l-31.724998 -34.72863l2.775591 -44.584934l33.311523 -27.22029z" fill-rule="evenodd"></path><path fill="#f4ddef" d="m55.176956 128.6601l38.214508 38.376526l-29.204514 -91.51218z" fill-rule="evenodd"></path><path stroke="#cd90be" stroke-width="24.0" stroke-linejoin="round" stroke-linecap="butt" d="m55.176956 128.6601l38.214508 38.376526l-29.204514 -91.51218z" fill-rule="evenodd"></path><path fill="#d1edf7" d="m156.65475 97.81745l17.845383 65.23435l60.674408 -66.17314l-36.48404 -25.342705z" fill-rule="evenodd"></path><path stroke="#95bed9" stroke-width="24.0" stroke-linejoin="round" stroke-linecap="butt" d="m156.65475 97.81745l17.845383 65.23435l60.674408 -66.17314l-36.48404 -25.342705z" fill-rule="evenodd"></path><path fill="#d1edf7" d="m175.84221 161.64177l29.74266 20.649414l32.517715 -44.115204l-3.96521 -40.36071z" fill-rule="evenodd"></path><path stroke="#95bed9" stroke-width="24.0" stroke-linejoin="round" stroke-linecap="butt" d="m175.84221 161.64177l29.74266 20.649414l32.517715 -44.115204l-3.96521 -40.36071z" fill-rule="evenodd"></path><path fill="#d1edf7" d="m117.45365 132.6029l83.27827 55.378708l-49.57039 33.32144z" fill-rule="evenodd"></path><path stroke="#95bed9" stroke-width="24.0" stroke-linejoin="round" stroke-linecap="butt" d="m117.45365 132.6029l83.27827 55.378708l-49.57039 33.32144z" fill-rule="evenodd"></path></g></svg><style>@media (prefers-color-scheme: light) { :root { filter: none; } }
</style></svg>