<svg version="1.1" viewBox="0.0 0.0 261.16010498687666 242.39107611548556" fill="none" stroke="none" stroke-linecap="square" stroke-miterlimit="10" xmlns:xlink="http://www.w3.org/1999/xlink" xmlns="http://www.w3.org/2000/svg"><clipPath id="p.0"><path d="m0 0l261.1601 0l0 242.39108l-261.1601 0l0 -242.39108z" clip-rule="nonzero"/></clipPath><g clip-path="url(#p.0)"><path fill="#000000" fill-opacity="0.0" d="m0 0l261.1601 0l0 242.39108l-261.1601 0z" fill-rule="evenodd"/><path fill="#f4ddef" d="m61.36039 30.263107l5.5039444 43.601845l56.732697 29.854027l-16.088692 -54.600872z" fill-rule="evenodd"/><path stroke="#cd90be" stroke-width="24.0" stroke-linejoin="round" stroke-linecap="butt" d="m61.36039 30.263107l5.5039444 43.601845l56.732697 29.854027l-16.088692 -54.600872z" fill-rule="evenodd"/><path fill="#f4ddef" d="m66.12109 78.14241l-10.707119 47.04l-31.724998 -31.07956l2.775591 -39.90022l33.31153 -24.360147z" fill-rule="evenodd"/><path stroke="#cd90be" stroke-width="24.0" stroke-linejoin="round" stroke-linecap="butt" d="m66.12109 78.14241l-10.707119 47.04l-31.724998 -31.07956l2.775591 -39.90022l33.31153 -24.360147z" fill-rule="evenodd"/><path fill="#f4ddef" d="m55.808144 126.093765l38.214508 34.339966l-29.204521 -81.88666z" fill-rule="evenodd"/><path stroke="#cd90be" stroke-width="24.0" stroke-linejoin="round" stroke-linecap="butt" d="m55.808144 126.093765l38.214508 34.339966l-29.204521 -81.88666z" fill-rule="evenodd"/><path fill="#d1edf7" d="m156.02332 102.05236l17.845383 58.37992l60.674423 -59.22007l-36.48404 -22.679855z" fill-rule="evenodd"/><path stroke="#95bed9" stroke-width="24.0" stroke-linejoin="round" stroke-linecap="butt" d="m156.02332 102.05236l17.845383 58.37992l60.674423 -59.22007l-36.48404 -22.679855z" fill-rule="evenodd"/><path fill="#d1edf7" d="m175.21075 159.16457l29.74266 18.479706l32.517715 -39.479843l-3.96521 -36.119858z" fill-rule="evenodd"/><path stroke="#95bed9" stroke-width="24.0" stroke-linejoin="round" stroke-linecap="butt" d="m175.21075 159.16457l29.74266 18.479706l32.517715 -39.479843l-3.96521 -36.119858z" fill-rule="evenodd"/><path fill="#d1edf7" d="m116.82228 133.16922l83.27826 49.55986l-49.570374 29.82022z" fill-rule="evenodd"/><path stroke="#95bed9" stroke-width="24.0" stroke-linejoin="round" stroke-linecap="butt" d="m116.82228 133.16922l83.27826 49.55986l-49.570374 29.82022z" fill-rule="evenodd"/></g></svg>